<svg xmlns="http://www.w3.org/2000/svg" width="173.505" height="212.609"><path fill="#FFF" d="M83.264 3.284C60.169 45.204 17.151 72.82 1.737 120.243c-8.52 35.504 15.497 71.916 46.053 84.023 41.382 19.271 97.119 4.75 119.287-39.355 13.401-27.632 4.377-61.792-13.5-84.552C133.914 50.717 107.815 26.812 85.354 0l-2.085 3.282-.005.002z"/><path fill="#F44336" d="M161.982 134.442c0 36.132-33.648 65.421-75.156 65.421s-75.157-29.289-75.157-65.421c0-36.13 51.434-76.406 75.157-114.358 34.05 37.953 75.156 78.229 75.156 114.358z"/></svg>